<?xml version="1.0" standalone="no"?>
<!DOCTYPE svg PUBLIC "-//W3C//DTD SVG 20010904//EN"
 "http://www.w3.org/TR/2001/REC-SVG-20010904/DTD/svg10.dtd">
<svg version="1.0" xmlns="http://www.w3.org/2000/svg"
 width="549.000000pt" height="549.000000pt" viewBox="0 0 549.000000 549.000000"
 preserveAspectRatio="xMidYMid meet">
<metadata>
Created by potrace 1.14, written by Peter Selinger 2001-2017
</metadata>
<g transform="translate(0.000000,549.000000) scale(0.100000,-0.100000)"
fill="#000000" stroke="none">
<path d="M539 4685 c-56 -18 -115 -73 -142 -134 -21 -46 -21 -52 -21 -1731 l0
-1686 28 -58 c31 -63 84 -109 146 -126 25 -7 774 -9 2201 -8 2011 3 2166 4
2194 20 66 37 116 102 130 166 4 19 7 783 7 1698 0 1504 -2 1668 -16 1712 -19
56 -63 104 -126 138 l-44 24 -2156 -1 c-1827 0 -2162 -2 -2201 -14z m4383 -83
c20 -13 47 -40 60 -60 l23 -37 2 -1670 c1 -1096 -1 -1681 -8 -1702 -14 -43
-44 -80 -82 -100 -30 -16 -174 -18 -2177 -19 -2281 -1 -2181 -3 -2233 44 -11
9 -28 34 -38 54 -19 37 -19 83 -17 1721 l3 1684 28 36 c30 40 57 57 100 66 15
3 990 6 2165 6 l2137 0 37 -23z"/>
<path d="M2404 4418 c15 -35 9 -65 -17 -87 -20 -16 -37 -7 -37 19 0 10 -10 31
-23 46 -19 22 -34 28 -80 32 l-56 4 19 -36 c14 -29 16 -43 9 -66 -17 -47 -55
-50 -61 -5 -9 56 -82 105 -158 105 -26 0 -49 -2 -52 -5 -3 -3 7 -19 22 -35 23
-25 27 -37 25 -79 -2 -63 -18 -81 -145 -166 -144 -96 -187 -105 -208 -45 -6
16 -8 30 -4 31 4 0 -2 4 -13 8 -25 10 -75 -7 -109 -36 -30 -27 -33 -60 -10
-106 10 -17 18 -41 19 -52 1 -11 3 -26 4 -33 0 -7 15 -21 33 -32 24 -14 44
-18 84 -14 70 6 94 15 140 58 21 20 44 36 50 36 22 0 64 -53 75 -93 13 -48 6
-132 -15 -181 -21 -51 -60 -71 -130 -67 -11 1 -36 19 -57 42 -41 45 -46 45
-116 -8 -41 -30 -42 -59 -7 -119 22 -37 25 -52 19 -89 -4 -30 -3 -45 5 -45 20
0 60 49 60 73 0 30 24 54 36 36 4 -7 7 -27 6 -45 -2 -55 34 -25 53 44 6 19 9
21 22 11 10 -9 13 -25 10 -51 -7 -64 43 -38 58 30 7 32 29 43 37 20 3 -7 4
-28 2 -46 l-2 -32 27 16 c63 37 109 146 107 250 -2 73 -30 150 -79 216 -50 69
-64 153 -32 202 45 68 124 87 190 46 20 -12 36 -17 36 -11 6 53 19 55 51 6 16
-25 34 -45 40 -45 5 0 21 9 35 19 19 16 30 18 50 10 15 -5 50 -10 79 -10 108
-2 178 61 183 163 4 84 -48 136 -146 146 l-43 4 14 -34z m-759 -388 c3 -5 14
-10 24 -10 9 0 26 -6 36 -14 27 -20 6 -43 -37 -40 -53 2 -56 3 -72 20 -12 12
-13 20 -6 35 11 20 45 26 55 9z"/>
<path d="M4461 4385 c-53 -28 -66 -98 -27 -140 19 -20 23 -32 17 -48 -13 -36
-72 -49 -191 -44 -97 4 -116 9 -260 62 -384 142 -412 149 -580 149 -240 -2
-422 -100 -437 -235 -4 -35 1 -55 25 -99 31 -59 32 -80 2 -80 -77 0 -111 -81
-58 -137 l21 -23 23 25 c42 46 81 44 232 -9 107 -38 115 -39 252 -42 84 -1
158 4 225 16 148 26 197 31 340 35 220 6 346 -28 397 -106 22 -34 25 -46 17
-72 -5 -18 -21 -43 -36 -56 -23 -20 -34 -22 -73 -18 -26 3 -71 17 -101 31
-191 87 -441 81 -789 -21 -47 -13 -124 -38 -171 -53 -131 -44 -226 -70 -256
-70 -14 0 -12 -5 10 -26 28 -25 28 -27 10 -46 -44 -49 -155 -84 -276 -87 -27
-1 -28 -3 -25 -38 2 -31 -1 -39 -21 -49 -30 -15 -186 -11 -227 6 -28 12 -33
11 -52 -8 -20 -20 -29 -21 -139 -18 -71 3 -125 0 -137 -6 -10 -6 -49 -39 -85
-74 -36 -35 -71 -64 -78 -64 -19 0 -60 61 -72 108 -7 23 -17 42 -24 42 -7 0
-38 -23 -70 -51 -51 -46 -56 -55 -52 -83 17 -98 76 -220 145 -299 79 -89 237
-185 286 -173 24 6 24 8 4 76 -7 25 -15 50 -16 55 -2 6 -12 51 -22 101 -36
166 -9 250 94 302 125 63 317 44 388 -40 45 -52 60 -110 53 -201 -8 -97 -19
-170 -34 -221 -5 -18 -1 -19 58 -13 80 8 137 31 434 177 132 65 263 126 290
135 109 37 234 9 282 -63 20 -31 44 -94 57 -153 9 -40 58 -84 138 -124 101
-50 111 -59 110 -97 -1 -55 -20 -77 -81 -94 -31 -8 -67 -20 -81 -27 -26 -12
-79 -61 -81 -74 0 -5 -2 -18 -5 -30 -5 -27 17 -31 36 -8 7 8 24 15 39 15 14 0
40 4 58 9 37 11 45 0 31 -38 -5 -13 -6 -26 -3 -29 2 -3 48 16 101 42 53 26 98
45 100 43 3 -3 11 -39 13 -59 1 -7 27 -4 87 8 12 2 27 17 34 34 7 16 17 30 22
30 5 0 28 -13 51 -29 66 -45 133 -54 187 -26 l25 13 -30 11 c-60 22 -76 35
-105 87 -16 29 -46 68 -65 85 -42 39 -43 50 -7 71 44 26 61 50 68 98 6 43 5
44 -10 23 -35 -46 -123 -53 -144 -10 -27 55 -18 88 42 151 97 103 157 255 157
401 0 77 -2 90 -16 146 -5 22 2 34 46 80 60 63 89 120 93 187 10 138 -84 242
-246 272 -120 23 -211 26 -498 17 -165 -6 -239 9 -291 59 -32 31 -36 23 -18
-40 6 -21 7 -42 2 -46 -14 -14 -88 28 -107 60 -9 17 -18 44 -18 61 -1 40 -10
43 -42 14 -24 -22 -27 -32 -25 -80 3 -73 -8 -84 -61 -60 -87 39 -151 129 -143
200 9 83 61 151 138 181 119 45 311 -34 332 -137 3 -16 10 -29 16 -29 12 0 34
27 48 60 l11 25 18 -23 c18 -22 20 -46 6 -89 -11 -34 19 -30 55 7 l30 30 26
-30 c27 -33 72 -60 98 -60 15 0 15 2 1 22 -9 12 -16 35 -16 50 l0 28 68 -44
c100 -64 202 -97 202 -66 0 6 -5 10 -11 10 -6 0 -9 10 -7 22 3 20 8 22 53 19
71 -6 114 -5 161 2 149 22 251 156 204 267 -23 53 -100 82 -149 55z m-823
-848 c14 -13 22 -32 22 -51 -1 -86 -111 -111 -148 -33 -19 39 -4 78 37 99 37
18 55 15 89 -15z m296 12 c43 -33 35 -99 -15 -125 -54 -28 -113 9 -113 71 0
66 73 97 128 54z m276 -145 c15 -39 12 -53 -19 -84 -23 -23 -34 -28 -61 -24
-39 7 -69 39 -70 75 0 33 33 76 63 81 32 6 76 -19 87 -48z m-702 -87 c37 -34
28 -98 -17 -121 -91 -46 -166 81 -79 134 34 20 63 16 96 -13z m300 2 c54 -34
40 -121 -22 -138 -67 -18 -123 47 -92 107 26 50 66 61 114 31z m647 -82 c16
-38 10 -61 -26 -91 -29 -25 -36 -26 -77 -12 -46 15 -61 89 -26 127 35 38 108
25 129 -24z m-1257 -23 c30 -34 28 -70 -7 -104 -35 -35 -74 -33 -108 6 -27 30
-29 61 -7 92 33 47 82 49 122 6z m865 -76 c32 -67 -27 -129 -101 -104 -21 7
-50 50 -47 71 4 33 21 58 48 70 41 17 81 3 100 -37z m-1156 -14 c14 -15 21
-34 19 -47 -3 -12 -5 -25 -5 -29 -2 -21 -44 -48 -74 -48 -44 0 -77 31 -77 73
0 78 85 110 137 51z m754 3 c76 -58 7 -176 -78 -135 -40 19 -55 66 -36 105 8
18 22 34 31 36 33 9 67 6 83 -6z m-254 -65 c43 -39 23 -113 -38 -135 -23 -8
-75 20 -87 47 -35 78 60 146 125 88z m-1399 -52 c56 -47 11 -147 -60 -136 -37
6 -54 20 -66 54 -25 73 66 132 126 82z m2315 -32 c25 -29 22 -74 -8 -103 -40
-41 -95 -31 -124 24 -18 33 2 87 37 100 36 13 73 5 95 -21z m-1230 -37 c30
-12 50 -62 38 -94 -13 -34 -39 -51 -78 -51 -66 0 -98 81 -51 131 23 24 51 29
91 14z m-220 -100 c29 -28 25 -80 -7 -108 -34 -29 -68 -29 -100 0 -39 34 -41
73 -5 109 25 26 35 29 62 24 18 -4 40 -15 50 -25z m-728 -16 c28 -27 30 -38
14 -83 -19 -56 -101 -66 -133 -16 -36 53 1 124 64 124 19 0 40 -9 55 -25z
m1920 0 c27 -26 31 -54 14 -88 -41 -77 -149 -45 -149 44 0 31 44 69 80 69 19
0 40 -9 55 -25z"/>
<path d="M1125 4296 c-85 -42 -131 -97 -155 -186 -12 -44 -13 -143 -5 -530 2
-91 4 -215 4 -277 1 -103 3 -113 22 -124 31 -16 104 -14 132 4 l25 16 0 485
c0 343 3 495 12 520 6 20 28 49 51 67 21 17 37 35 33 40 -10 17 -68 9 -119
-15z"/>
<path d="M2513 4116 c-17 -28 -55 -38 -136 -35 -63 2 -81 0 -79 -10 5 -24 -9
-51 -27 -51 -10 0 -37 18 -62 39 -32 30 -47 37 -56 29 -9 -7 -26 -4 -59 11
-75 35 -139 6 -128 -58 6 -30 75 -151 87 -151 5 0 14 13 20 30 6 16 16 31 23
34 6 2 38 -16 70 -40 66 -50 122 -80 131 -70 4 3 2 21 -4 40 -17 54 -3 64 54
38 47 -21 103 -35 103 -26 0 3 -5 15 -12 27 -26 48 -21 52 77 60 28 2 83 12
123 22 l73 19 -51 19 c-28 10 -66 34 -84 53 -36 37 -51 42 -63 20z m-417 -58
c12 -11 21 -27 20 -36 -3 -21 -44 -31 -76 -20 -42 15 -51 45 -24 73 19 18 49
12 80 -17z"/>
<path d="M2520 3932 c0 -2 9 -12 20 -24 27 -29 26 -62 -2 -75 -13 -5 -51 -8
-85 -6 l-63 4 0 -32 0 -32 -52 7 c-29 4 -91 25 -137 47 -46 21 -85 38 -86 37
-2 -2 -7 -24 -12 -49 -12 -55 -6 -69 49 -122 43 -42 50 -42 53 0 1 16 3 34 3
40 1 8 21 -2 49 -23 42 -32 134 -84 148 -84 3 0 3 22 -1 49 l-6 49 43 -15 c49
-17 166 -26 174 -14 2 5 -2 14 -10 21 -15 13 -21 49 -7 51 7 1 19 3 82 14 37
7 101 49 120 78 10 16 8 18 -17 14 -43 -7 -121 17 -151 46 -22 22 -36 26 -70
24 -23 -1 -42 -3 -42 -5z"/>
<path d="M1283 3865 c-35 -15 -64 -60 -58 -91 2 -10 4 -27 4 -36 1 -23 54 -76
83 -83 44 -11 144 3 189 26 24 12 70 39 102 61 87 59 192 62 232 5 l15 -21 0
24 c-1 29 -28 51 -83 69 -55 18 -100 9 -207 -43 -112 -54 -172 -64 -219 -35
-25 15 -31 25 -31 53 0 19 9 45 21 60 19 24 19 26 2 26 -10 -1 -32 -7 -50 -15z"/>
<path d="M2692 3727 c-30 -11 -31 -14 -16 -29 10 -10 14 -23 10 -36 -11 -32
-58 -45 -141 -39 -75 5 -88 0 -60 -23 8 -7 15 -21 15 -31 0 -18 -6 -19 -56
-14 -30 3 -84 18 -120 35 -35 16 -65 25 -65 19 -1 -5 -3 -13 -4 -19 -1 -5 -3
-14 -4 -20 -2 -20 -40 -9 -99 30 -33 22 -61 40 -63 40 -2 0 -5 -16 -7 -36 -1
-19 -11 -54 -22 -76 l-20 -42 27 -28 c14 -15 29 -26 31 -23 3 2 7 24 9 47 3
24 9 47 13 51 4 5 32 -8 61 -28 44 -30 111 -65 124 -65 2 0 3 12 2 28 -1 63
-1 62 56 32 49 -27 163 -57 173 -47 3 3 7 19 9 37 6 43 7 44 52 29 47 -15 158
-18 172 -4 8 8 3 22 -14 47 -32 47 -33 69 -2 64 44 -6 207 48 207 70 0 3 -5 2
-10 -1 -6 -4 -32 -8 -57 -11 -36 -3 -60 3 -103 23 -30 15 -57 28 -60 29 -3 1
-20 -3 -38 -9z"/>
<path d="M1755 3720 l-30 -6 27 -18 c29 -19 68 -14 68 9 0 16 -27 23 -65 15z"/>
<path d="M2830 3578 c0 -4 8 -12 19 -17 73 -40 -31 -115 -159 -116 -38 0 -45
-3 -50 -24 -9 -40 -28 -41 -207 -16 -52 7 -53 6 -53 -18 0 -23 -4 -25 -33 -22
-18 1 -66 16 -107 33 -41 16 -76 29 -77 28 -1 -1 -4 -13 -6 -26 -6 -35 -18
-60 -28 -60 -6 0 -34 18 -63 40 -29 22 -56 40 -61 40 -14 0 -144 -101 -170
-132 -27 -32 -59 -98 -51 -106 3 -2 24 11 48 31 54 44 80 57 111 57 30 0 44
-16 52 -59 8 -47 24 -73 38 -64 7 4 39 28 72 54 71 55 95 64 138 50 17 -6 44
-12 60 -15 15 -3 36 -7 47 -11 30 -10 57 11 64 49 l7 35 37 -19 c20 -10 51
-22 67 -25 17 -3 44 -9 60 -12 38 -8 84 -7 92 1 4 4 6 27 4 51 l-2 45 73 1
c104 2 134 6 184 28 55 25 57 46 5 55 -21 3 -44 13 -51 21 -13 16 -14 15 109
78 36 17 66 37 68 42 2 6 -42 10 -117 11 -66 0 -120 -3 -120 -8z"/>
<path d="M882 3185 c-16 -35 -15 -62 5 -95 23 -40 46 -49 162 -64 34 -4 37
-22 8 -48 -22 -20 -23 -23 -9 -34 14 -10 15 -15 2 -40 -23 -46 -23 -47 -12
-40 6 4 16 -2 22 -13 8 -16 6 -23 -11 -35 -19 -13 -19 -43 1 -31 15 9 21 -14
10 -34 -7 -14 -7 -27 1 -44 18 -39 -22 -91 -76 -100 -30 -4 -45 -16 -39 -30 2
-7 -4 -21 -15 -31 -17 -15 -25 -16 -52 -7 -42 14 -52 6 -34 -29 11 -21 31 -35
74 -50 52 -19 62 -28 85 -70 15 -28 32 -47 39 -44 7 2 23 21 37 41 32 48 60
73 79 73 24 0 69 43 76 73 7 26 7 26 -38 21 -40 -5 -47 -3 -62 19 -14 23 -14
28 0 68 37 100 47 162 42 264 -3 55 -8 107 -11 116 -5 12 3 19 33 29 41 13 48
22 61 76 6 25 3 38 -14 59 -26 32 -63 28 -68 -8 -4 -30 -51 -51 -125 -53 -75
-3 -107 10 -127 53 -19 40 -29 41 -44 8z"/>
<path d="M2422 3089 c-134 -24 -194 -135 -153 -284 6 -22 11 -44 12 -50 1 -5
5 -20 10 -33 20 -53 33 -166 30 -264 -2 -46 -51 -84 -128 -98 -72 -13 -98 -25
-134 -62 -29 -31 -58 -96 -52 -119 5 -17 8 -16 47 10 91 63 136 71 136 25 0
-29 26 -84 40 -84 5 0 12 10 16 22 21 67 106 147 124 117 5 -7 6 -35 3 -61 -5
-38 -3 -48 9 -48 17 0 98 50 154 96 l40 33 32 -33 c40 -43 117 -62 175 -43 26
9 38 27 17 27 -22 0 -81 64 -92 101 -11 39 -11 40 25 70 33 28 66 93 53 106
-3 4 -19 -5 -34 -19 -15 -14 -38 -28 -51 -31 -26 -6 -72 8 -83 26 -12 19 -9
81 7 145 9 33 18 73 20 89 2 15 9 66 16 111 14 92 6 129 -35 185 -36 49 -128
79 -204 66z"/>
<path d="M1705 3060 c-31 -34 -118 -79 -183 -94 -82 -19 -165 -11 -247 24
l-44 19 15 -41 c19 -56 17 -152 -6 -218 -10 -30 -16 -58 -12 -62 4 -4 25 -3
47 2 22 5 60 11 85 14 25 3 72 10 105 16 114 22 110 24 110 -45 1 -42 8 -75
24 -108 25 -52 60 -81 62 -50 3 75 31 115 136 196 l61 47 -42 63 c-42 62 -74
146 -83 215 -6 46 -6 46 -28 22z"/>
<path d="M858 2977 c-9 -18 -6 -94 8 -175 7 -42 40 -122 60 -143 14 -15 18
-15 45 -2 34 17 35 21 12 38 -16 12 -16 16 -3 40 13 24 13 28 -3 37 -17 9 -17
12 -2 34 13 20 13 27 3 44 -10 15 -10 24 -1 38 9 15 7 23 -8 43 -10 13 -16 31
-13 40 8 27 -84 31 -98 6z"/>
<path d="M3520 2889 c-60 -16 -300 -113 -300 -121 0 -16 152 -136 226 -177 44
-25 87 -51 97 -59 39 -33 6 -89 -58 -97 -22 -3 -53 -7 -70 -9 -73 -9 -130 -36
-183 -86 -22 -21 -22 -47 1 -33 7 4 21 9 32 10 11 2 30 5 43 8 35 9 36 -17 3
-68 -35 -52 -38 -62 -13 -52 9 4 33 9 52 11 19 2 55 7 80 11 63 10 65 10 66
-7 1 -8 2 -20 2 -27 3 -18 132 53 180 100 l43 42 29 -17 c28 -16 30 -16 38 0
5 9 10 35 12 57 1 22 3 52 4 68 2 16 17 43 38 65 19 20 38 48 41 60 5 21 3 23
-16 17 -122 -37 -143 -16 -151 151 -2 44 -9 91 -16 106 -24 50 -97 69 -180 47z"/>
<path d="M1074 1982 c-60 -6 -65 -20 -65 -208 -1 -235 -1 -228 21 -252 19 -20
31 -22 126 -22 159 0 194 21 194 119 0 53 -7 62 -49 67 -45 6 -61 -5 -61 -39
0 -18 -4 -38 -8 -44 -13 -20 -74 -25 -97 -8 -18 14 -19 27 -18 147 1 72 6 135
11 140 5 5 29 8 53 6 41 -3 44 -5 47 -33 5 -38 16 -45 69 -43 49 1 54 10 51
83 -1 51 -23 84 -55 86 -64 3 -193 4 -219 1z"/>
<path d="M1458 1982 l-28 -3 0 -228 c0 -163 3 -230 12 -239 8 -8 54 -12 139
-12 l127 0 4 28 c8 57 2 62 -70 62 -37 0 -72 4 -78 8 -6 4 -11 27 -10 52 l1
45 73 3 c77 3 79 5 72 67 -3 27 -2 27 -62 27 -85 0 -89 3 -86 56 l3 47 73 3
72 3 0 39 c0 45 13 41 -135 44 -44 0 -92 0 -107 -2z"/>
<path d="M1757 1975 c-2 -5 27 -74 64 -152 l68 -142 -2 -81 c-2 -54 2 -85 9
-91 7 -6 34 -9 61 -7 l48 3 5 100 c4 85 10 112 40 180 19 44 35 82 36 85 0 3
6 17 12 33 33 76 33 77 9 78 -76 5 -107 -3 -107 -25 0 -22 -47 -126 -57 -126
-5 0 -21 34 -37 75 -23 60 -33 75 -50 76 -11 0 -38 1 -58 2 -21 1 -39 -2 -41
-8z"/>
<path d="M2201 1970 c-11 -20 -8 -441 2 -457 6 -9 43 -13 126 -13 l119 0 4 28
c8 57 3 62 -73 62 -48 0 -69 4 -70 13 -1 6 -2 92 -3 189 -1 97 -4 179 -7 183
-4 3 -26 7 -49 8 -29 2 -44 -2 -49 -13z"/>
<path d="M2562 1983 c-4 -1 -19 -4 -33 -7 -14 -3 -30 -16 -35 -28 -5 -13 -9
-99 -8 -193 2 -223 1 -212 24 -235 18 -18 33 -20 144 -20 180 0 170 -14 171
239 1 183 -1 203 -17 221 -10 11 -31 20 -46 21 -75 2 -193 4 -200 2z m145
-105 c12 -20 11 -257 -1 -273 -17 -22 -68 -29 -91 -12 -17 13 -19 28 -20 143
-1 71 3 135 8 142 5 6 29 12 53 12 23 0 46 -6 51 -12z"/>
<path d="M2933 1982 l-23 -3 0 -234 c0 -255 -3 -245 61 -245 33 0 31 -8 35
130 1 58 3 116 4 130 0 17 20 -15 63 -102 35 -69 69 -133 76 -142 16 -19 76
-21 88 -3 10 15 12 456 2 462 -4 3 -21 7 -39 9 -41 5 -47 -11 -45 -107 2 -125
-11 -125 -73 -2 -29 58 -58 105 -65 106 -7 0 -23 1 -37 2 -14 1 -35 1 -47 -1z"/>
<path d="M3463 1982 c-18 -3 -23 -10 -23 -32 0 -48 9 -60 46 -60 20 0 34 -5
35 -12 1 -7 2 -89 4 -183 1 -93 3 -176 3 -182 1 -9 20 -13 57 -13 50 0 55 2
56 23 0 12 1 99 2 192 l2 170 38 3 c20 2 37 6 38 10 5 44 4 74 -4 79 -10 6
-216 10 -254 5z"/>
<path d="M3802 1975 c-10 -15 -9 -438 0 -458 8 -16 23 -17 141 -15 l132 3 0
40 0 40 -72 3 c-77 3 -90 12 -87 57 1 11 2 28 3 38 1 14 11 17 64 17 76 0 88
7 85 49 -3 41 -9 44 -72 44 -69 -1 -85 9 -82 52 1 19 6 39 11 44 6 6 39 11 75
13 62 3 64 4 65 30 1 15 -1 32 -5 39 -9 14 -249 19 -258 4z"/>
<path d="M4233 1975 c-11 -8 -32 -85 -64 -235 -27 -123 -49 -228 -49 -232 0
-13 98 -9 107 5 4 6 8 24 9 40 1 15 2 32 3 37 1 7 23 10 58 8 56 -3 57 -3 59
-36 4 -57 9 -62 64 -62 27 0 50 4 50 10 0 5 -13 71 -29 147 -17 76 -32 149
-35 163 -3 14 -9 40 -15 58 -5 18 -10 35 -10 37 0 3 -2 19 -6 35 -6 26 -11 30
-43 31 -20 0 -47 2 -60 3 -12 2 -30 -3 -39 -9z m101 -267 c6 -27 5 -28 -33
-28 -22 0 -42 3 -44 8 -7 10 23 96 37 104 11 7 24 -22 40 -84z"/>
<path d="M1053 1413 c-26 -5 -53 -39 -53 -65 0 -27 27 -46 84 -58 61 -12 80
-35 41 -50 -27 -10 -75 2 -75 20 0 13 -37 13 -45 0 -11 -18 14 -48 47 -56 66
-16 123 0 137 39 16 44 -4 69 -65 82 -16 3 -36 8 -44 10 -8 2 -18 4 -22 4 -5
1 -8 8 -8 16 0 25 44 28 85 6 45 -24 58 -19 43 14 -7 16 -25 29 -47 35 -37 10
-40 10 -78 3z"/>
<path d="M1216 1413 c-2 -3 13 -32 35 -66 30 -47 39 -72 39 -105 0 -41 1 -43
27 -40 24 3 27 7 28 43 1 28 13 58 38 98 20 31 37 61 37 65 0 5 -13 7 -29 4
-22 -3 -33 -13 -46 -43 -10 -21 -21 -39 -24 -39 -3 0 -15 17 -26 37 -18 33
-64 60 -79 46z"/>
<path d="M1468 1412 c-16 -3 -18 -17 -18 -108 0 -104 0 -105 23 -102 23 3 23
4 27 98 l2 55 10 -40 c29 -117 27 -112 53 -112 26 0 33 15 51 105 12 58 19 42
17 -34 -1 -67 0 -74 17 -74 11 0 23 8 27 18 7 14 9 96 4 173 -1 20 -46 30 -65
15 -8 -6 -19 -36 -26 -66 -14 -59 -28 -94 -31 -72 -1 6 -2 15 -3 20 -1 4 -8
32 -15 64 -14 58 -28 69 -73 60z"/>
<path d="M1763 1412 l-33 -3 0 -105 0 -105 73 2 c39 1 80 7 90 11 28 14 40 57
23 82 -10 15 -11 27 -4 39 12 23 2 54 -23 68 -22 11 -75 16 -126 11z m100 -51
c16 -16 -7 -31 -50 -31 -28 0 -33 4 -33 23 0 19 5 22 35 22 19 -1 41 -7 48
-14z m-1 -75 c14 -6 15 -12 7 -27 -7 -14 -21 -19 -48 -19 -33 0 -39 4 -43 25
-4 17 0 25 11 28 22 4 53 1 73 -7z"/>
<path d="M2013 1404 c-52 -26 -70 -89 -44 -153 28 -65 168 -72 202 -9 15 28
20 84 9 112 -19 52 -108 78 -167 50z m100 -42 c9 -9 18 -31 21 -48 8 -43 -34
-87 -73 -78 -36 9 -41 15 -48 57 -4 24 -1 44 9 60 20 29 69 34 91 9z"/>
<path d="M2559 1397 c-82 -55 -51 -190 44 -199 42 -4 93 11 113 33 24 27 30
103 10 133 -35 54 -114 69 -167 33z m111 -39 c41 -44 12 -120 -45 -120 -52 0
-80 63 -50 113 21 34 67 37 95 7z"/>
<path d="M2813 1412 l-31 -3 -4 -72 c-5 -116 -1 -137 28 -137 22 0 24 4 24 45
l0 45 49 0 c28 0 52 4 55 8 10 16 -10 30 -44 30 -60 0 -62 1 -58 25 3 20 8 22
61 21 49 -1 57 2 57 18 0 10 -3 18 -7 19 -37 3 -104 3 -130 1z"/>
<path d="M3123 1406 c-51 -23 -72 -81 -52 -144 15 -46 72 -72 132 -61 26 4 47
3 55 -3 18 -16 41 7 24 24 -7 7 -8 17 -2 28 24 44 8 124 -28 147 -31 19 -95
24 -129 9z m103 -51 c20 -27 19 -89 -1 -81 -24 9 -48 -4 -35 -19 8 -9 5 -14
-10 -18 -56 -14 -89 86 -41 124 28 23 68 20 87 -6z"/>
<path d="M3493 1412 c-25 -4 -26 -8 -23 -103 1 -49 -1 -56 -22 -66 -14 -6 -32
-7 -45 -2 -21 8 -23 15 -23 89 l0 80 -28 0 -27 0 1 -85 c2 -76 5 -88 24 -105
13 -11 31 -21 42 -21 10 -1 24 -2 31 -3 21 -3 64 14 81 33 13 15 16 36 14 102
-3 81 -4 84 -25 81z"/>
<path d="M3623 1411 c-10 -7 -83 -181 -83 -199 0 -7 11 -12 25 -12 17 0 26 7
30 23 5 20 12 24 44 22 44 -2 61 -11 61 -30 0 -13 47 -17 53 -5 1 3 -16 49
-37 102 -31 77 -43 97 -62 101 -12 2 -27 1 -31 -2z m42 -101 c5 -22 2 -26 -19
-28 -30 -2 -29 -4 -15 37 12 35 24 32 34 -9z"/>
<path d="M4066 1410 c-9 -20 2 -35 26 -35 14 0 30 -4 35 -8 4 -5 8 -43 8 -85
0 -75 1 -77 25 -77 24 0 25 2 26 79 2 83 9 96 50 91 18 -2 24 3 24 16 0 14 -8
19 -27 20 -16 0 -59 1 -96 2 -38 1 -70 0 -71 -3z"/>
<path d="M4282 1411 c-7 -4 4 -30 28 -69 29 -46 40 -73 40 -102 0 -36 3 -40
25 -40 22 0 25 4 25 40 0 29 11 58 40 105 l40 65 -30 0 c-24 0 -33 -7 -50 -40
-11 -22 -22 -40 -25 -40 -3 0 -13 17 -24 39 -20 38 -48 55 -69 42z"/>
<path d="M2229 1403 c-3 -29 -4 -180 -1 -189 5 -17 153 -18 164 -2 15 24 8 28
-52 28 -50 0 -60 3 -61 18 -1 9 -2 46 -3 82 -1 59 -3 65 -23 68 -13 2 -23 0
-24 -5z"/>
<path d="M3790 1306 l0 -103 85 -2 c79 -2 85 0 85 19 0 18 -6 20 -60 20 l-60
0 1 53 c2 112 1 117 -26 117 l-25 0 0 -104z"/>
<path d="M3990 1305 l0 -105 25 0 25 0 0 105 0 105 -25 0 -25 0 0 -105z"/>
</g>
</svg>
